<mxfile host="app.diagrams.net" modified="2023-12-01T16:19:27.009Z" agent="Mozilla/5.0 (Windows NT 10.0; Win64; x64) AppleWebKit/537.36 (KHTML, like Gecko) Chrome/119.0.0.0 Safari/537.36" version="22.1.5" etag="V_-z37Mt1OgoMOwkofEp" type="device">
  <diagram id="N3234ASvJfDSWaJryoMs" name="Pagina-1">
    <mxGraphModel dx="1398" dy="790" grid="1" gridSize="10" guides="1" tooltips="1" connect="1" arrows="1" fold="1" page="1" pageScale="1" pageWidth="827" pageHeight="1169" math="0" shadow="0">
      <root>
        <mxCell id="0" />
        <mxCell id="1" parent="0" />
        <mxCell id="EwhVjRwzI69w9qEVV-6i-3" value="FoodDelivery&lt;br&gt;" style="swimlane;whiteSpace=wrap;html=1;" vertex="1" parent="1">
          <mxGeometry x="184" y="20" width="460" height="1770" as="geometry" />
        </mxCell>
        <mxCell id="EwhVjRwzI69w9qEVV-6i-11" value="Registrazione" style="ellipse;whiteSpace=wrap;html=1;" vertex="1" parent="EwhVjRwzI69w9qEVV-6i-3">
          <mxGeometry x="132.5" y="60" width="195" height="80" as="geometry" />
        </mxCell>
        <mxCell id="EwhVjRwzI69w9qEVV-6i-20" value="Log in" style="ellipse;whiteSpace=wrap;html=1;" vertex="1" parent="EwhVjRwzI69w9qEVV-6i-3">
          <mxGeometry x="132.5" y="150" width="195" height="80" as="geometry" />
        </mxCell>
        <mxCell id="EwhVjRwzI69w9qEVV-6i-26" value="Inserimento dati profilo" style="ellipse;whiteSpace=wrap;html=1;" vertex="1" parent="EwhVjRwzI69w9qEVV-6i-3">
          <mxGeometry x="132" y="330" width="195" height="80" as="geometry" />
        </mxCell>
        <mxCell id="EwhVjRwzI69w9qEVV-6i-31" value="modifica dati profilo" style="ellipse;whiteSpace=wrap;html=1;" vertex="1" parent="EwhVjRwzI69w9qEVV-6i-3">
          <mxGeometry x="132" y="420" width="195" height="80" as="geometry" />
        </mxCell>
        <mxCell id="EwhVjRwzI69w9qEVV-6i-36" value="Elimina registrazione propria" style="ellipse;whiteSpace=wrap;html=1;" vertex="1" parent="EwhVjRwzI69w9qEVV-6i-3">
          <mxGeometry x="132" y="510" width="195" height="80" as="geometry" />
        </mxCell>
        <mxCell id="EwhVjRwzI69w9qEVV-6i-41" value="Elimina registrazione altrui" style="ellipse;whiteSpace=wrap;html=1;" vertex="1" parent="EwhVjRwzI69w9qEVV-6i-3">
          <mxGeometry x="132" y="600" width="195" height="80" as="geometry" />
        </mxCell>
        <mxCell id="EwhVjRwzI69w9qEVV-6i-44" value="Creazione FoodProvider" style="ellipse;whiteSpace=wrap;html=1;" vertex="1" parent="EwhVjRwzI69w9qEVV-6i-3">
          <mxGeometry x="132" y="690" width="195" height="80" as="geometry" />
        </mxCell>
        <mxCell id="EwhVjRwzI69w9qEVV-6i-46" value="Creazione prodotto" style="ellipse;whiteSpace=wrap;html=1;" vertex="1" parent="EwhVjRwzI69w9qEVV-6i-3">
          <mxGeometry x="132" y="780" width="195" height="80" as="geometry" />
        </mxCell>
        <mxCell id="EwhVjRwzI69w9qEVV-6i-48" value="Richiesta ordine" style="ellipse;whiteSpace=wrap;html=1;" vertex="1" parent="EwhVjRwzI69w9qEVV-6i-3">
          <mxGeometry x="132" y="870" width="195" height="80" as="geometry" />
        </mxCell>
        <mxCell id="EwhVjRwzI69w9qEVV-6i-50" value="Ricevere ordine" style="ellipse;whiteSpace=wrap;html=1;" vertex="1" parent="EwhVjRwzI69w9qEVV-6i-3">
          <mxGeometry x="132" y="960" width="195" height="80" as="geometry" />
        </mxCell>
        <mxCell id="EwhVjRwzI69w9qEVV-6i-53" value="Consegna ordine" style="ellipse;whiteSpace=wrap;html=1;" vertex="1" parent="EwhVjRwzI69w9qEVV-6i-3">
          <mxGeometry x="132" y="1140" width="195" height="80" as="geometry" />
        </mxCell>
        <mxCell id="EwhVjRwzI69w9qEVV-6i-55" value="Affida ordine" style="ellipse;whiteSpace=wrap;html=1;" vertex="1" parent="EwhVjRwzI69w9qEVV-6i-3">
          <mxGeometry x="132" y="1050" width="195" height="80" as="geometry" />
        </mxCell>
        <mxCell id="EwhVjRwzI69w9qEVV-6i-57" value="Annulla ordine" style="ellipse;whiteSpace=wrap;html=1;" vertex="1" parent="EwhVjRwzI69w9qEVV-6i-3">
          <mxGeometry x="132" y="1230" width="195" height="80" as="geometry" />
        </mxCell>
        <mxCell id="EwhVjRwzI69w9qEVV-6i-60" value="Recensione&lt;br&gt;" style="ellipse;whiteSpace=wrap;html=1;" vertex="1" parent="EwhVjRwzI69w9qEVV-6i-3">
          <mxGeometry x="132" y="1320" width="195" height="80" as="geometry" />
        </mxCell>
        <mxCell id="EwhVjRwzI69w9qEVV-6i-157" value="Log out" style="ellipse;whiteSpace=wrap;html=1;" vertex="1" parent="EwhVjRwzI69w9qEVV-6i-3">
          <mxGeometry x="132" y="1680" width="195" height="80" as="geometry" />
        </mxCell>
        <mxCell id="EwhVjRwzI69w9qEVV-6i-162" value="Timbratura" style="ellipse;whiteSpace=wrap;html=1;" vertex="1" parent="EwhVjRwzI69w9qEVV-6i-3">
          <mxGeometry x="132" y="1410" width="195" height="80" as="geometry" />
        </mxCell>
        <mxCell id="EwhVjRwzI69w9qEVV-6i-165" value="Inserisci turno ristorante" style="ellipse;whiteSpace=wrap;html=1;" vertex="1" parent="EwhVjRwzI69w9qEVV-6i-3">
          <mxGeometry x="132" y="1500" width="195" height="80" as="geometry" />
        </mxCell>
        <mxCell id="EwhVjRwzI69w9qEVV-6i-166" value="Modifica turno ristorante" style="ellipse;whiteSpace=wrap;html=1;" vertex="1" parent="EwhVjRwzI69w9qEVV-6i-3">
          <mxGeometry x="132" y="1590" width="195" height="80" as="geometry" />
        </mxCell>
        <mxCell id="EwhVjRwzI69w9qEVV-6i-169" value="Scegli ruolo" style="ellipse;whiteSpace=wrap;html=1;" vertex="1" parent="EwhVjRwzI69w9qEVV-6i-3">
          <mxGeometry x="132" y="240" width="195" height="80" as="geometry" />
        </mxCell>
        <mxCell id="EwhVjRwzI69w9qEVV-6i-4" value="Ristoratore" style="shape=umlActor;verticalLabelPosition=bottom;verticalAlign=top;html=1;outlineConnect=0;" vertex="1" parent="1">
          <mxGeometry x="50" y="730" width="30" height="60" as="geometry" />
        </mxCell>
        <mxCell id="EwhVjRwzI69w9qEVV-6i-5" value="Cliente" style="shape=umlActor;verticalLabelPosition=bottom;verticalAlign=top;html=1;outlineConnect=0;" vertex="1" parent="1">
          <mxGeometry x="50" y="880" width="30" height="60" as="geometry" />
        </mxCell>
        <mxCell id="EwhVjRwzI69w9qEVV-6i-6" value="Fattorino" style="shape=umlActor;verticalLabelPosition=bottom;verticalAlign=top;html=1;outlineConnect=0;" vertex="1" parent="1">
          <mxGeometry x="750" y="880" width="30" height="60" as="geometry" />
        </mxCell>
        <mxCell id="EwhVjRwzI69w9qEVV-6i-8" value="Admin" style="shape=umlActor;verticalLabelPosition=bottom;verticalAlign=top;html=1;outlineConnect=0;" vertex="1" parent="1">
          <mxGeometry x="750" y="730" width="30" height="60" as="geometry" />
        </mxCell>
        <mxCell id="EwhVjRwzI69w9qEVV-6i-16" value="" style="endArrow=none;html=1;rounded=0;entryX=0;entryY=0.5;entryDx=0;entryDy=0;exitX=1;exitY=0.3333333333333333;exitDx=0;exitDy=0;exitPerimeter=0;fillColor=#ffe6cc;strokeColor=#d79b00;" edge="1" parent="1" source="EwhVjRwzI69w9qEVV-6i-4" target="EwhVjRwzI69w9qEVV-6i-11">
          <mxGeometry width="50" height="50" relative="1" as="geometry">
            <mxPoint x="44" y="230" as="sourcePoint" />
            <mxPoint x="94" y="180" as="targetPoint" />
          </mxGeometry>
        </mxCell>
        <mxCell id="EwhVjRwzI69w9qEVV-6i-17" value="" style="endArrow=none;html=1;rounded=0;exitX=1;exitY=0.3333333333333333;exitDx=0;exitDy=0;exitPerimeter=0;entryX=0;entryY=0.5;entryDx=0;entryDy=0;fillColor=#d5e8d4;strokeColor=#82b366;" edge="1" parent="1" source="EwhVjRwzI69w9qEVV-6i-5" target="EwhVjRwzI69w9qEVV-6i-11">
          <mxGeometry width="50" height="50" relative="1" as="geometry">
            <mxPoint x="104" y="220" as="sourcePoint" />
            <mxPoint x="154" y="170" as="targetPoint" />
          </mxGeometry>
        </mxCell>
        <mxCell id="EwhVjRwzI69w9qEVV-6i-18" value="" style="endArrow=none;html=1;rounded=0;exitX=0;exitY=0.3333333333333333;exitDx=0;exitDy=0;exitPerimeter=0;entryX=1;entryY=0.5;entryDx=0;entryDy=0;fillColor=#f8cecc;strokeColor=#b85450;" edge="1" parent="1" source="EwhVjRwzI69w9qEVV-6i-8" target="EwhVjRwzI69w9qEVV-6i-11">
          <mxGeometry width="50" height="50" relative="1" as="geometry">
            <mxPoint x="604" y="60" as="sourcePoint" />
            <mxPoint x="654" y="10" as="targetPoint" />
          </mxGeometry>
        </mxCell>
        <mxCell id="EwhVjRwzI69w9qEVV-6i-19" value="" style="endArrow=none;html=1;rounded=0;entryX=0;entryY=0.3333333333333333;entryDx=0;entryDy=0;entryPerimeter=0;exitX=1;exitY=0.5;exitDx=0;exitDy=0;fillColor=#dae8fc;strokeColor=#6c8ebf;" edge="1" parent="1" source="EwhVjRwzI69w9qEVV-6i-11" target="EwhVjRwzI69w9qEVV-6i-6">
          <mxGeometry width="50" height="50" relative="1" as="geometry">
            <mxPoint x="394" y="190" as="sourcePoint" />
            <mxPoint x="444" y="140" as="targetPoint" />
          </mxGeometry>
        </mxCell>
        <mxCell id="EwhVjRwzI69w9qEVV-6i-21" value="" style="endArrow=none;html=1;rounded=0;entryX=0;entryY=0.5;entryDx=0;entryDy=0;fillColor=#d5e8d4;strokeColor=#82b366;exitX=1;exitY=0.3333333333333333;exitDx=0;exitDy=0;exitPerimeter=0;" edge="1" parent="1" source="EwhVjRwzI69w9qEVV-6i-5" target="EwhVjRwzI69w9qEVV-6i-20">
          <mxGeometry width="50" height="50" relative="1" as="geometry">
            <mxPoint x="104" y="300" as="sourcePoint" />
            <mxPoint x="194" y="290" as="targetPoint" />
          </mxGeometry>
        </mxCell>
        <mxCell id="EwhVjRwzI69w9qEVV-6i-22" value="" style="endArrow=none;html=1;rounded=0;exitX=1;exitY=0.3333333333333333;exitDx=0;exitDy=0;exitPerimeter=0;entryX=0;entryY=0.5;entryDx=0;entryDy=0;fillColor=#ffe6cc;strokeColor=#d79b00;" edge="1" parent="1" source="EwhVjRwzI69w9qEVV-6i-4" target="EwhVjRwzI69w9qEVV-6i-20">
          <mxGeometry width="50" height="50" relative="1" as="geometry">
            <mxPoint x="54" y="210" as="sourcePoint" />
            <mxPoint x="104" y="160" as="targetPoint" />
          </mxGeometry>
        </mxCell>
        <mxCell id="EwhVjRwzI69w9qEVV-6i-23" value="" style="endArrow=none;html=1;rounded=0;entryX=0;entryY=0.3333333333333333;entryDx=0;entryDy=0;entryPerimeter=0;exitX=1;exitY=0.5;exitDx=0;exitDy=0;fillColor=#dae8fc;strokeColor=#6c8ebf;" edge="1" parent="1" source="EwhVjRwzI69w9qEVV-6i-20" target="EwhVjRwzI69w9qEVV-6i-6">
          <mxGeometry width="50" height="50" relative="1" as="geometry">
            <mxPoint x="494" y="290" as="sourcePoint" />
            <mxPoint x="544" y="240" as="targetPoint" />
          </mxGeometry>
        </mxCell>
        <mxCell id="EwhVjRwzI69w9qEVV-6i-24" value="" style="endArrow=none;html=1;rounded=0;entryX=0;entryY=0.3333333333333333;entryDx=0;entryDy=0;entryPerimeter=0;exitX=1;exitY=0.5;exitDx=0;exitDy=0;fillColor=#f8cecc;strokeColor=#b85450;" edge="1" parent="1" source="EwhVjRwzI69w9qEVV-6i-20" target="EwhVjRwzI69w9qEVV-6i-8">
          <mxGeometry width="50" height="50" relative="1" as="geometry">
            <mxPoint x="404" y="270" as="sourcePoint" />
            <mxPoint x="454" y="220" as="targetPoint" />
          </mxGeometry>
        </mxCell>
        <mxCell id="EwhVjRwzI69w9qEVV-6i-27" value="" style="endArrow=none;html=1;rounded=0;exitX=1;exitY=0.3333333333333333;exitDx=0;exitDy=0;exitPerimeter=0;entryX=0;entryY=0.5;entryDx=0;entryDy=0;fillColor=#ffe6cc;strokeColor=#d79b00;" edge="1" parent="1" source="EwhVjRwzI69w9qEVV-6i-4" target="EwhVjRwzI69w9qEVV-6i-26">
          <mxGeometry width="50" height="50" relative="1" as="geometry">
            <mxPoint x="94" y="200" as="sourcePoint" />
            <mxPoint x="144" y="150" as="targetPoint" />
          </mxGeometry>
        </mxCell>
        <mxCell id="EwhVjRwzI69w9qEVV-6i-28" value="" style="endArrow=none;html=1;rounded=0;exitX=1;exitY=0.3333333333333333;exitDx=0;exitDy=0;exitPerimeter=0;entryX=0;entryY=0.5;entryDx=0;entryDy=0;fillColor=#d5e8d4;strokeColor=#82b366;" edge="1" parent="1" source="EwhVjRwzI69w9qEVV-6i-5" target="EwhVjRwzI69w9qEVV-6i-26">
          <mxGeometry width="50" height="50" relative="1" as="geometry">
            <mxPoint x="44" y="210" as="sourcePoint" />
            <mxPoint x="94" y="160" as="targetPoint" />
          </mxGeometry>
        </mxCell>
        <mxCell id="EwhVjRwzI69w9qEVV-6i-29" value="" style="endArrow=none;html=1;rounded=0;entryX=0;entryY=0.3333333333333333;entryDx=0;entryDy=0;entryPerimeter=0;exitX=1;exitY=0.5;exitDx=0;exitDy=0;fillColor=#dae8fc;strokeColor=#6c8ebf;" edge="1" parent="1" source="EwhVjRwzI69w9qEVV-6i-26" target="EwhVjRwzI69w9qEVV-6i-6">
          <mxGeometry width="50" height="50" relative="1" as="geometry">
            <mxPoint x="504" y="290" as="sourcePoint" />
            <mxPoint x="554" y="240" as="targetPoint" />
          </mxGeometry>
        </mxCell>
        <mxCell id="EwhVjRwzI69w9qEVV-6i-32" value="" style="endArrow=none;html=1;rounded=0;exitX=1;exitY=0.3333333333333333;exitDx=0;exitDy=0;exitPerimeter=0;entryX=0;entryY=0.5;entryDx=0;entryDy=0;fillColor=#ffe6cc;strokeColor=#d79b00;" edge="1" parent="1" source="EwhVjRwzI69w9qEVV-6i-4" target="EwhVjRwzI69w9qEVV-6i-31">
          <mxGeometry width="50" height="50" relative="1" as="geometry">
            <mxPoint x="94" y="220" as="sourcePoint" />
            <mxPoint x="144" y="170" as="targetPoint" />
          </mxGeometry>
        </mxCell>
        <mxCell id="EwhVjRwzI69w9qEVV-6i-33" value="" style="endArrow=none;html=1;rounded=0;exitX=1;exitY=0.3333333333333333;exitDx=0;exitDy=0;exitPerimeter=0;entryX=0;entryY=0.5;entryDx=0;entryDy=0;fillColor=#d5e8d4;strokeColor=#82b366;" edge="1" parent="1" source="EwhVjRwzI69w9qEVV-6i-5" target="EwhVjRwzI69w9qEVV-6i-31">
          <mxGeometry width="50" height="50" relative="1" as="geometry">
            <mxPoint x="164" y="350" as="sourcePoint" />
            <mxPoint x="214" y="300" as="targetPoint" />
          </mxGeometry>
        </mxCell>
        <mxCell id="EwhVjRwzI69w9qEVV-6i-35" value="" style="endArrow=none;html=1;rounded=0;entryX=0;entryY=0.3333333333333333;entryDx=0;entryDy=0;entryPerimeter=0;exitX=1;exitY=0.5;exitDx=0;exitDy=0;fillColor=#dae8fc;strokeColor=#6c8ebf;" edge="1" parent="1" source="EwhVjRwzI69w9qEVV-6i-31" target="EwhVjRwzI69w9qEVV-6i-6">
          <mxGeometry width="50" height="50" relative="1" as="geometry">
            <mxPoint x="464" y="350" as="sourcePoint" />
            <mxPoint x="514" y="300" as="targetPoint" />
          </mxGeometry>
        </mxCell>
        <mxCell id="EwhVjRwzI69w9qEVV-6i-37" value="" style="endArrow=none;html=1;rounded=0;exitX=1;exitY=0.3333333333333333;exitDx=0;exitDy=0;exitPerimeter=0;entryX=0;entryY=0.5;entryDx=0;entryDy=0;fillColor=#d5e8d4;strokeColor=#82b366;" edge="1" parent="1" source="EwhVjRwzI69w9qEVV-6i-5" target="EwhVjRwzI69w9qEVV-6i-36">
          <mxGeometry width="50" height="50" relative="1" as="geometry">
            <mxPoint x="264" y="440" as="sourcePoint" />
            <mxPoint x="314" y="390" as="targetPoint" />
          </mxGeometry>
        </mxCell>
        <mxCell id="EwhVjRwzI69w9qEVV-6i-38" value="" style="endArrow=none;html=1;rounded=0;exitX=1;exitY=0.5;exitDx=0;exitDy=0;entryX=0;entryY=0.3333333333333333;entryDx=0;entryDy=0;entryPerimeter=0;fillColor=#dae8fc;strokeColor=#6c8ebf;" edge="1" parent="1" source="EwhVjRwzI69w9qEVV-6i-36" target="EwhVjRwzI69w9qEVV-6i-6">
          <mxGeometry width="50" height="50" relative="1" as="geometry">
            <mxPoint x="514" y="370" as="sourcePoint" />
            <mxPoint x="564" y="320" as="targetPoint" />
            <Array as="points">
              <mxPoint x="630" y="730" />
            </Array>
          </mxGeometry>
        </mxCell>
        <mxCell id="EwhVjRwzI69w9qEVV-6i-39" value="" style="endArrow=none;html=1;rounded=0;exitX=1;exitY=0.3333333333333333;exitDx=0;exitDy=0;exitPerimeter=0;entryX=0;entryY=0.5;entryDx=0;entryDy=0;fillColor=#ffe6cc;strokeColor=#d79b00;" edge="1" parent="1" source="EwhVjRwzI69w9qEVV-6i-4" target="EwhVjRwzI69w9qEVV-6i-36">
          <mxGeometry width="50" height="50" relative="1" as="geometry">
            <mxPoint x="94" y="250" as="sourcePoint" />
            <mxPoint x="144" y="200" as="targetPoint" />
          </mxGeometry>
        </mxCell>
        <mxCell id="EwhVjRwzI69w9qEVV-6i-42" value="" style="endArrow=none;html=1;rounded=0;entryX=0;entryY=0.3333333333333333;entryDx=0;entryDy=0;entryPerimeter=0;exitX=1;exitY=0.5;exitDx=0;exitDy=0;fillColor=#f8cecc;strokeColor=#b85450;" edge="1" parent="1" source="EwhVjRwzI69w9qEVV-6i-41" target="EwhVjRwzI69w9qEVV-6i-8">
          <mxGeometry width="50" height="50" relative="1" as="geometry">
            <mxPoint x="674" y="230" as="sourcePoint" />
            <mxPoint x="724" y="180" as="targetPoint" />
          </mxGeometry>
        </mxCell>
        <mxCell id="EwhVjRwzI69w9qEVV-6i-45" value="" style="endArrow=none;html=1;rounded=0;exitX=1;exitY=0.3333333333333333;exitDx=0;exitDy=0;exitPerimeter=0;entryX=0;entryY=0.5;entryDx=0;entryDy=0;fillColor=#ffe6cc;strokeColor=#d79b00;" edge="1" parent="1" source="EwhVjRwzI69w9qEVV-6i-4" target="EwhVjRwzI69w9qEVV-6i-44">
          <mxGeometry width="50" height="50" relative="1" as="geometry">
            <mxPoint x="104" y="230" as="sourcePoint" />
            <mxPoint x="154" y="180" as="targetPoint" />
          </mxGeometry>
        </mxCell>
        <mxCell id="EwhVjRwzI69w9qEVV-6i-47" value="" style="endArrow=none;html=1;rounded=0;exitX=1;exitY=0.3333333333333333;exitDx=0;exitDy=0;exitPerimeter=0;entryX=0;entryY=0.5;entryDx=0;entryDy=0;fillColor=#ffe6cc;strokeColor=#d79b00;" edge="1" parent="1" source="EwhVjRwzI69w9qEVV-6i-4" target="EwhVjRwzI69w9qEVV-6i-46">
          <mxGeometry width="50" height="50" relative="1" as="geometry">
            <mxPoint x="94" y="230" as="sourcePoint" />
            <mxPoint x="144" y="180" as="targetPoint" />
          </mxGeometry>
        </mxCell>
        <mxCell id="EwhVjRwzI69w9qEVV-6i-49" value="" style="endArrow=none;html=1;rounded=0;exitX=1;exitY=0.3333333333333333;exitDx=0;exitDy=0;exitPerimeter=0;entryX=0;entryY=0.5;entryDx=0;entryDy=0;fillColor=#d5e8d4;strokeColor=#82b366;" edge="1" parent="1" source="EwhVjRwzI69w9qEVV-6i-5" target="EwhVjRwzI69w9qEVV-6i-48">
          <mxGeometry width="50" height="50" relative="1" as="geometry">
            <mxPoint x="154" y="470" as="sourcePoint" />
            <mxPoint x="204" y="420" as="targetPoint" />
          </mxGeometry>
        </mxCell>
        <mxCell id="EwhVjRwzI69w9qEVV-6i-51" value="" style="endArrow=none;html=1;rounded=0;exitX=1;exitY=0.3333333333333333;exitDx=0;exitDy=0;exitPerimeter=0;fillColor=#ffe6cc;strokeColor=#d79b00;entryX=0;entryY=0.5;entryDx=0;entryDy=0;" edge="1" parent="1" source="EwhVjRwzI69w9qEVV-6i-4" target="EwhVjRwzI69w9qEVV-6i-50">
          <mxGeometry width="50" height="50" relative="1" as="geometry">
            <mxPoint x="54" y="270" as="sourcePoint" />
            <mxPoint x="104" y="220" as="targetPoint" />
          </mxGeometry>
        </mxCell>
        <mxCell id="EwhVjRwzI69w9qEVV-6i-52" value="" style="endArrow=none;html=1;rounded=0;entryX=0;entryY=0.3333333333333333;entryDx=0;entryDy=0;entryPerimeter=0;fillColor=#dae8fc;strokeColor=#6c8ebf;exitX=1;exitY=0.5;exitDx=0;exitDy=0;" edge="1" parent="1" source="EwhVjRwzI69w9qEVV-6i-50" target="EwhVjRwzI69w9qEVV-6i-6">
          <mxGeometry width="50" height="50" relative="1" as="geometry">
            <mxPoint x="654" y="410" as="sourcePoint" />
            <mxPoint x="704" y="360" as="targetPoint" />
          </mxGeometry>
        </mxCell>
        <mxCell id="EwhVjRwzI69w9qEVV-6i-54" value="" style="endArrow=none;html=1;rounded=0;entryX=0;entryY=0.3333333333333333;entryDx=0;entryDy=0;entryPerimeter=0;fillColor=#dae8fc;strokeColor=#6c8ebf;exitX=1;exitY=0.5;exitDx=0;exitDy=0;" edge="1" parent="1" source="EwhVjRwzI69w9qEVV-6i-53" target="EwhVjRwzI69w9qEVV-6i-6">
          <mxGeometry width="50" height="50" relative="1" as="geometry">
            <mxPoint x="544" y="460" as="sourcePoint" />
            <mxPoint x="594" y="410" as="targetPoint" />
          </mxGeometry>
        </mxCell>
        <mxCell id="EwhVjRwzI69w9qEVV-6i-56" value="" style="endArrow=none;html=1;rounded=0;entryX=1;entryY=0.3333333333333333;entryDx=0;entryDy=0;entryPerimeter=0;fillColor=#ffe6cc;strokeColor=#d79b00;exitX=0;exitY=0.5;exitDx=0;exitDy=0;" edge="1" parent="1" source="EwhVjRwzI69w9qEVV-6i-55" target="EwhVjRwzI69w9qEVV-6i-4">
          <mxGeometry width="50" height="50" relative="1" as="geometry">
            <mxPoint x="14" y="190" as="sourcePoint" />
            <mxPoint x="64" y="140" as="targetPoint" />
          </mxGeometry>
        </mxCell>
        <mxCell id="EwhVjRwzI69w9qEVV-6i-59" value="" style="endArrow=none;html=1;rounded=0;exitX=1;exitY=0.3333333333333333;exitDx=0;exitDy=0;exitPerimeter=0;fillColor=#d5e8d4;strokeColor=#82b366;entryX=0;entryY=0.5;entryDx=0;entryDy=0;" edge="1" parent="1" source="EwhVjRwzI69w9qEVV-6i-5" target="EwhVjRwzI69w9qEVV-6i-57">
          <mxGeometry width="50" height="50" relative="1" as="geometry">
            <mxPoint x="104" y="480" as="sourcePoint" />
            <mxPoint x="154" y="430" as="targetPoint" />
          </mxGeometry>
        </mxCell>
        <mxCell id="EwhVjRwzI69w9qEVV-6i-62" value="" style="endArrow=none;html=1;rounded=0;exitX=1;exitY=0.3333333333333333;exitDx=0;exitDy=0;exitPerimeter=0;entryX=0;entryY=0.5;entryDx=0;entryDy=0;fillColor=#d5e8d4;strokeColor=#82b366;" edge="1" parent="1" source="EwhVjRwzI69w9qEVV-6i-5" target="EwhVjRwzI69w9qEVV-6i-60">
          <mxGeometry width="50" height="50" relative="1" as="geometry">
            <mxPoint x="74" y="440" as="sourcePoint" />
            <mxPoint x="124" y="390" as="targetPoint" />
          </mxGeometry>
        </mxCell>
        <mxCell id="EwhVjRwzI69w9qEVV-6i-158" value="" style="endArrow=none;html=1;rounded=0;entryX=1;entryY=0.3333333333333333;entryDx=0;entryDy=0;entryPerimeter=0;exitX=0;exitY=0.5;exitDx=0;exitDy=0;fillColor=#ffe6cc;strokeColor=#d79b00;" edge="1" parent="1" source="EwhVjRwzI69w9qEVV-6i-157" target="EwhVjRwzI69w9qEVV-6i-4">
          <mxGeometry width="50" height="50" relative="1" as="geometry">
            <mxPoint x="24" y="270" as="sourcePoint" />
            <mxPoint x="74" y="220" as="targetPoint" />
          </mxGeometry>
        </mxCell>
        <mxCell id="EwhVjRwzI69w9qEVV-6i-159" value="" style="endArrow=none;html=1;rounded=0;entryX=1;entryY=0.3333333333333333;entryDx=0;entryDy=0;entryPerimeter=0;exitX=0;exitY=0.5;exitDx=0;exitDy=0;fillColor=#d5e8d4;strokeColor=#82b366;" edge="1" parent="1" source="EwhVjRwzI69w9qEVV-6i-157" target="EwhVjRwzI69w9qEVV-6i-5">
          <mxGeometry width="50" height="50" relative="1" as="geometry">
            <mxPoint x="14" y="440" as="sourcePoint" />
            <mxPoint x="64" y="390" as="targetPoint" />
          </mxGeometry>
        </mxCell>
        <mxCell id="EwhVjRwzI69w9qEVV-6i-160" value="" style="endArrow=none;html=1;rounded=0;entryX=0;entryY=0.3333333333333333;entryDx=0;entryDy=0;entryPerimeter=0;exitX=1;exitY=0.5;exitDx=0;exitDy=0;fillColor=#dae8fc;strokeColor=#6c8ebf;" edge="1" parent="1" source="EwhVjRwzI69w9qEVV-6i-157" target="EwhVjRwzI69w9qEVV-6i-6">
          <mxGeometry width="50" height="50" relative="1" as="geometry">
            <mxPoint x="784" y="460" as="sourcePoint" />
            <mxPoint x="834" y="410" as="targetPoint" />
          </mxGeometry>
        </mxCell>
        <mxCell id="EwhVjRwzI69w9qEVV-6i-161" value="" style="endArrow=none;html=1;rounded=0;entryX=0;entryY=0.3333333333333333;entryDx=0;entryDy=0;entryPerimeter=0;exitX=1;exitY=0.5;exitDx=0;exitDy=0;fillColor=#f8cecc;strokeColor=#b85450;" edge="1" parent="1" source="EwhVjRwzI69w9qEVV-6i-157" target="EwhVjRwzI69w9qEVV-6i-8">
          <mxGeometry width="50" height="50" relative="1" as="geometry">
            <mxPoint x="724" y="210" as="sourcePoint" />
            <mxPoint x="704" y="180" as="targetPoint" />
          </mxGeometry>
        </mxCell>
        <mxCell id="EwhVjRwzI69w9qEVV-6i-164" value="" style="endArrow=none;html=1;rounded=0;exitX=0;exitY=0.3333333333333333;exitDx=0;exitDy=0;exitPerimeter=0;entryX=1;entryY=0.5;entryDx=0;entryDy=0;fillColor=#dae8fc;strokeColor=#6c8ebf;" edge="1" parent="1" source="EwhVjRwzI69w9qEVV-6i-6" target="EwhVjRwzI69w9qEVV-6i-162">
          <mxGeometry width="50" height="50" relative="1" as="geometry">
            <mxPoint x="744" y="200" as="sourcePoint" />
            <mxPoint x="794" y="150" as="targetPoint" />
          </mxGeometry>
        </mxCell>
        <mxCell id="EwhVjRwzI69w9qEVV-6i-167" value="" style="endArrow=none;html=1;rounded=0;entryX=1;entryY=0.3333333333333333;entryDx=0;entryDy=0;entryPerimeter=0;exitX=0;exitY=0.5;exitDx=0;exitDy=0;fillColor=#ffe6cc;strokeColor=#d79b00;" edge="1" parent="1" source="EwhVjRwzI69w9qEVV-6i-165" target="EwhVjRwzI69w9qEVV-6i-4">
          <mxGeometry width="50" height="50" relative="1" as="geometry">
            <mxPoint x="10" y="1060" as="sourcePoint" />
            <mxPoint x="60" y="1010" as="targetPoint" />
          </mxGeometry>
        </mxCell>
        <mxCell id="EwhVjRwzI69w9qEVV-6i-168" value="" style="endArrow=none;html=1;rounded=0;entryX=1;entryY=0.3333333333333333;entryDx=0;entryDy=0;entryPerimeter=0;exitX=0;exitY=0.5;exitDx=0;exitDy=0;fillColor=#ffe6cc;strokeColor=#d79b00;" edge="1" parent="1" source="EwhVjRwzI69w9qEVV-6i-166" target="EwhVjRwzI69w9qEVV-6i-4">
          <mxGeometry width="50" height="50" relative="1" as="geometry">
            <mxPoint x="-40" y="830" as="sourcePoint" />
            <mxPoint x="94" y="710" as="targetPoint" />
          </mxGeometry>
        </mxCell>
        <mxCell id="EwhVjRwzI69w9qEVV-6i-170" value="" style="endArrow=none;html=1;rounded=0;fillColor=#ffe6cc;strokeColor=#d79b00;exitX=1;exitY=0.3333333333333333;exitDx=0;exitDy=0;exitPerimeter=0;entryX=0;entryY=0.5;entryDx=0;entryDy=0;" edge="1" parent="1" source="EwhVjRwzI69w9qEVV-6i-4" target="EwhVjRwzI69w9qEVV-6i-169">
          <mxGeometry width="50" height="50" relative="1" as="geometry">
            <mxPoint x="-60" y="700" as="sourcePoint" />
            <mxPoint x="-10" y="650" as="targetPoint" />
          </mxGeometry>
        </mxCell>
        <mxCell id="EwhVjRwzI69w9qEVV-6i-171" value="" style="endArrow=none;html=1;rounded=0;fillColor=#d5e8d4;strokeColor=#82b366;exitX=1;exitY=0.3333333333333333;exitDx=0;exitDy=0;exitPerimeter=0;entryX=0;entryY=0.5;entryDx=0;entryDy=0;" edge="1" parent="1" source="EwhVjRwzI69w9qEVV-6i-5" target="EwhVjRwzI69w9qEVV-6i-169">
          <mxGeometry width="50" height="50" relative="1" as="geometry">
            <mxPoint x="-140" y="610" as="sourcePoint" />
            <mxPoint x="-90" y="560" as="targetPoint" />
          </mxGeometry>
        </mxCell>
        <mxCell id="EwhVjRwzI69w9qEVV-6i-172" value="" style="endArrow=none;html=1;rounded=0;exitX=0;exitY=0.3333333333333333;exitDx=0;exitDy=0;exitPerimeter=0;fillColor=#dae8fc;strokeColor=#6c8ebf;entryX=1;entryY=0.5;entryDx=0;entryDy=0;" edge="1" parent="1" source="EwhVjRwzI69w9qEVV-6i-6" target="EwhVjRwzI69w9qEVV-6i-169">
          <mxGeometry width="50" height="50" relative="1" as="geometry">
            <mxPoint x="-250" y="640" as="sourcePoint" />
            <mxPoint x="-200" y="590" as="targetPoint" />
          </mxGeometry>
        </mxCell>
      </root>
    </mxGraphModel>
  </diagram>
</mxfile>
